<?xml version="1.0" encoding="UTF-8" standalone="no"?>
<!DOCTYPE svg PUBLIC "-//W3C//DTD SVG 1.1//EN" "http://www.w3.org/Graphics/SVG/1.1/DTD/svg11.dtd">
<svg width="100%" height="100%" viewBox="0 0 335 123" version="1.1" xmlns="http://www.w3.org/2000/svg" xmlns:xlink="http://www.w3.org/1999/xlink" xml:space="preserve" xmlns:serif="http://www.serif.com/" style="fill-rule:evenodd;clip-rule:evenodd;stroke-linejoin:round;stroke-miterlimit:2;">
    <g transform="matrix(1.333333,0,0,1.333333,-79.399267,-179.978016)">
        <g>
            <clipPath id="_clip1">
                <path d="M100.441,137.641L270.258,137.641C291.57,137.641 308.852,154.918 308.852,176.234L308.852,186.199C308.852,207.516 291.57,224.797 270.258,224.797L100.441,224.797C79.125,224.797 61.844,207.516 61.844,186.199L61.844,176.234C61.844,154.918 79.125,137.641 100.441,137.641Z"/>
            </clipPath>
            <g clip-path="url(#_clip1)">
                <g transform="matrix(1,0,0,1,61,137)">
                    <g>
                        <g>
                            <g>
                                <clipPath id="_clip2">
                                    <path d="M39.441,0.641L209.258,0.641C230.57,0.641 247.852,17.918 247.852,39.234L247.852,49.199C247.852,70.516 230.57,87.797 209.258,87.797L39.441,87.797C18.125,87.797 0.844,70.516 0.844,49.199L0.844,39.234C0.844,17.918 18.125,0.641 39.441,0.641Z"/>
                                </clipPath>
                                <g clip-path="url(#_clip2)">
                                    <rect x="0.844" y="0.641" width="247.168" height="87.156" style="fill:rgb(94,23,235);fill-rule:nonzero;"/>
                                </g>
                            </g>
                        </g>
                    </g>
                </g>
            </g>
        </g>
    </g>
    <g transform="matrix(1.333333,0,0,1.333333,-79.399267,-179.978016)">
        <path d="M290.188,148.031C288.34,147.512 287.254,145.574 287.77,143.711C288.027,142.777 287.488,141.812 286.562,141.551C285.637,141.293 284.68,141.836 284.422,142.77L278.887,162.816C278.055,161.953 276.996,161.293 275.766,160.949C272.059,159.906 268.203,162.102 267.168,165.844C266.137,169.582 268.312,173.469 272.02,174.512C275.73,175.555 279.586,173.359 280.617,169.617L286.156,149.559C286.98,150.414 288.035,151.066 289.254,151.41C291.102,151.93 292.188,153.867 291.672,155.73C291.414,156.664 291.957,157.629 292.879,157.891C293.805,158.148 294.766,157.605 295.023,156.672C296.055,152.945 293.883,149.07 290.188,148.031Z" style="fill-rule:nonzero;"/>
    </g>
    <g transform="matrix(1.333333,0,0,1.333333,-79.399267,-179.978016)">
        <path d="M290.73,164.305C289.578,164.602 288.402,163.895 288.109,162.73C287.965,162.148 287.379,161.797 286.801,161.945C286.223,162.094 285.875,162.684 286.02,163.266L289.164,175.773C288.453,175.57 287.684,175.543 286.918,175.738C284.602,176.332 283.199,178.711 283.785,181.043C284.371,183.375 286.73,184.793 289.043,184.199C291.359,183.609 292.762,181.23 292.176,178.898L289.027,166.383C289.734,166.586 290.5,166.609 291.262,166.414C292.414,166.117 293.59,166.824 293.883,167.988C294.027,168.57 294.617,168.922 295.191,168.773C295.77,168.625 296.121,168.035 295.973,167.453C295.387,165.129 293.035,163.715 290.73,164.305Z" style="fill-rule:nonzero;"/>
    </g>
    <g transform="matrix(1.333333,0,0,1.333333,-79.399267,-179.978016)">
        <g transform="matrix(1,0,0,1,70.12027,198.743526)">
            <g>
                <path d="M38,0L36,-25.031L35.734,-25.031L27.094,-0.25L21.359,-0.25L12.703,-25.031L12.438,-25.031L10.453,0L0.812,0L4.609,-42.25L14.844,-42.25L24.219,-17.875L33.594,-42.25L43.828,-42.25L47.625,0L38,0Z" style="fill-rule:nonzero;"/>
            </g>
        </g>
    </g>
    <g transform="matrix(1.333333,0,0,1.333333,-79.399267,-179.978016)">
        <g transform="matrix(1,0,0,1,113.740636,198.743526)">
            <g>
                <path d="M11.625,-26.266L11.625,-13.781C11.625,-11.176 12.016,-9.328 12.797,-8.234C13.586,-7.148 14.922,-6.609 16.797,-6.609C18.672,-6.609 20,-7.148 20.781,-8.234C21.57,-9.328 21.969,-11.176 21.969,-13.781L21.969,-26.266L31.031,-26.266L31.031,-11.578C31.031,-7.203 29.895,-4.051 27.625,-2.125C25.352,-0.195 21.742,0.766 16.797,0.766C11.848,0.766 8.238,-0.195 5.969,-2.125C3.695,-4.051 2.562,-7.203 2.562,-11.578L2.562,-26.266L11.625,-26.266Z" style="fill-rule:nonzero;"/>
            </g>
        </g>
    </g>
    <g transform="matrix(1.333333,0,0,1.333333,-79.399267,-179.978016)">
        <g transform="matrix(1,0,0,1,142.513221,198.743526)">
            <g>
                <path d="M14.484,-27.031C15.992,-27.031 17.477,-26.859 18.938,-26.516C20.406,-26.18 21.5,-25.844 22.219,-25.5L23.297,-24.984L20.328,-19.047C18.273,-20.141 16.328,-20.688 14.484,-20.688C13.461,-20.688 12.738,-20.57 12.312,-20.344C11.883,-20.125 11.672,-19.707 11.672,-19.094C11.672,-18.957 11.688,-18.82 11.719,-18.688C11.758,-18.551 11.828,-18.422 11.922,-18.297C12.023,-18.18 12.117,-18.082 12.203,-18C12.297,-17.914 12.441,-17.82 12.641,-17.719C12.848,-17.613 13.008,-17.535 13.125,-17.484C13.25,-17.43 13.445,-17.352 13.719,-17.25C13.988,-17.156 14.191,-17.082 14.328,-17.031C14.473,-16.977 14.707,-16.898 15.031,-16.797C15.352,-16.691 15.598,-16.625 15.766,-16.594C16.828,-16.281 17.75,-15.938 18.531,-15.562C19.32,-15.188 20.148,-14.676 21.016,-14.031C21.891,-13.383 22.566,-12.566 23.047,-11.578C23.523,-10.586 23.766,-9.457 23.766,-8.188C23.766,-2.219 19.613,0.766 11.312,0.766C9.438,0.766 7.656,0.477 5.969,-0.094C4.281,-0.676 3.055,-1.258 2.297,-1.844L1.172,-2.766L4.859,-8.953C5.141,-8.723 5.5,-8.441 5.938,-8.109C6.383,-7.785 7.188,-7.344 8.344,-6.781C9.508,-6.219 10.516,-5.938 11.359,-5.938C13.242,-5.938 14.188,-6.566 14.188,-7.828C14.188,-8.41 13.945,-8.863 13.469,-9.188C12.988,-9.508 12.176,-9.875 11.031,-10.281C9.883,-10.695 8.988,-11.078 8.344,-11.422C6.707,-12.273 5.41,-13.238 4.453,-14.312C3.492,-15.383 3.016,-16.812 3.016,-18.594C3.016,-21.25 4.047,-23.316 6.109,-24.797C8.18,-26.285 10.973,-27.031 14.484,-27.031Z" style="fill-rule:nonzero;"/>
            </g>
        </g>
    </g>
    <g transform="matrix(1.333333,0,0,1.333333,-79.399267,-179.978016)">
        <g transform="matrix(1,0,0,1,162.889127,198.743526)">
            <g>
                <path d="M3.938,-40.906C5,-41.969 6.266,-42.5 7.734,-42.5C9.203,-42.5 10.461,-41.969 11.516,-40.906C12.578,-39.852 13.109,-38.594 13.109,-37.125C13.109,-35.656 12.578,-34.391 11.516,-33.328C10.461,-32.273 9.203,-31.75 7.734,-31.75C6.266,-31.75 5,-32.273 3.938,-33.328C2.883,-34.391 2.359,-35.656 2.359,-37.125C2.359,-38.594 2.883,-39.852 3.938,-40.906ZM3.078,-26.266L3.078,0L12.141,0L12.141,-26.266L3.078,-26.266Z" style="fill-rule:nonzero;"/>
            </g>
        </g>
    </g>
    <g transform="matrix(1.333333,0,0,1.333333,-79.399267,-179.978016)">
        <g transform="matrix(1,0,0,1,173.537179,198.743526)">
            <g>
                <path d="M17.047,-19.609C15.336,-19.609 13.867,-18.977 12.641,-17.719C11.41,-16.457 10.797,-14.938 10.797,-13.156C10.797,-11.352 11.41,-9.816 12.641,-8.547C13.867,-7.285 15.336,-6.656 17.047,-6.656C17.867,-6.656 18.645,-6.754 19.375,-6.953C20.113,-7.16 20.656,-7.367 21,-7.578L21.453,-7.891L24.531,-1.594C24.289,-1.414 23.957,-1.195 23.531,-0.938C23.102,-0.688 22.129,-0.344 20.609,0.094C19.086,0.539 17.457,0.766 15.719,0.766C11.863,0.766 8.473,-0.586 5.547,-3.297C2.629,-6.016 1.172,-9.27 1.172,-13.062C1.172,-16.883 2.629,-20.164 5.547,-22.906C8.473,-25.656 11.863,-27.031 15.719,-27.031C17.457,-27.031 19.062,-26.828 20.531,-26.422C22,-26.016 23.039,-25.602 23.656,-25.188L24.531,-24.578L21.453,-18.375C20.328,-19.195 18.859,-19.609 17.047,-19.609Z" style="fill-rule:nonzero;"/>
            </g>
        </g>
    </g>
    <g transform="matrix(1.333333,0,0,1.333333,-79.399267,-179.978016)">
        <g transform="matrix(1,0,0,1,193.870265,198.743526)">
            <g>
                <path d="M12.703,-16.953L12.703,0L3.078,0L3.078,-42.25L12.703,-42.25L12.703,-25.391L26.312,-25.391L26.312,-42.25L35.938,-42.25L35.938,0L26.312,0L26.312,-16.953L12.703,-16.953Z" style="fill:white;fill-rule:nonzero;"/>
            </g>
        </g>
    </g>
    <g transform="matrix(1.333333,0,0,1.333333,-79.399267,-179.978016)">
        <g transform="matrix(1,0,0,1,228.06997,198.743526)">
            <g>
                <path d="M11.625,-26.266L11.625,-13.781C11.625,-11.176 12.016,-9.328 12.797,-8.234C13.586,-7.148 14.922,-6.609 16.797,-6.609C18.672,-6.609 20,-7.148 20.781,-8.234C21.57,-9.328 21.969,-11.176 21.969,-13.781L21.969,-26.266L31.031,-26.266L31.031,-11.578C31.031,-7.203 29.895,-4.051 27.625,-2.125C25.352,-0.195 21.742,0.766 16.797,0.766C11.848,0.766 8.238,-0.195 5.969,-2.125C3.695,-4.051 2.562,-7.203 2.562,-11.578L2.562,-26.266L11.625,-26.266Z" style="fill:white;fill-rule:nonzero;"/>
            </g>
        </g>
    </g>
    <g transform="matrix(1.333333,0,0,1.333333,-79.399267,-179.978016)">
        <g transform="matrix(1,0,0,1,256.842555,198.743526)">
            <g>
                <path d="M30.109,-22.984C32.566,-20.285 33.797,-16.988 33.797,-13.094C33.797,-9.207 32.566,-5.926 30.109,-3.25C27.648,-0.57 24.523,0.766 20.734,0.766C17.254,0.766 14.391,-0.477 12.141,-2.969L12.031,-2.969L12.031,0L3.078,0L3.078,-44.031L12.141,-44.031L12.141,-23.766C14.391,-25.941 17.254,-27.031 20.734,-27.031C24.523,-27.031 27.648,-25.68 30.109,-22.984ZM22.469,-8.672C23.602,-9.816 24.172,-11.297 24.172,-13.109C24.172,-14.922 23.582,-16.406 22.406,-17.562C21.227,-18.719 19.77,-19.297 18.031,-19.297C16.32,-19.297 14.879,-18.719 13.703,-17.562C12.523,-16.406 11.938,-14.922 11.938,-13.109C11.938,-11.336 12.504,-9.867 13.641,-8.703C14.785,-7.547 16.25,-6.969 18.031,-6.969C19.863,-6.969 21.344,-7.535 22.469,-8.672Z" style="fill:white;fill-rule:nonzero;"/>
            </g>
        </g>
    </g>
    <g transform="matrix(1.333333,0,0,1.333333,-79.399267,-179.978016)">
        <g transform="matrix(1,0,0,1,286.999162,198.743526)">
            <g>
                <path d="M8.906,-10.953C10.539,-10.953 11.93,-10.379 13.078,-9.234C14.223,-8.098 14.797,-6.707 14.797,-5.062C14.797,-3.457 14.223,-2.082 13.078,-0.938C11.93,0.195 10.539,0.766 8.906,0.766C7.301,0.766 5.926,0.195 4.781,-0.938C3.645,-2.082 3.078,-3.457 3.078,-5.062C3.078,-6.707 3.645,-8.098 4.781,-9.234C5.926,-10.379 7.301,-10.953 8.906,-10.953Z" style="fill:rgb(92,225,230);fill-rule:nonzero;"/>
            </g>
        </g>
    </g>
</svg>
