<svg xmlns="http://www.w3.org/2000/svg" xmlns:xlink="http://www.w3.org/1999/xlink" width="500" zoomAndPan="magnify" viewBox="0 0 375 374.999991" height="500" preserveAspectRatio="xMidYMid meet" version="1.0"><defs><g/><clipPath id="da4e4212de"><path d="M 61.84375 137.640625 L 309 137.640625 L 309 224.796875 L 61.84375 224.796875 Z M 61.84375 137.640625 " clip-rule="nonzero"/></clipPath><clipPath id="37ec0acec0"><path d="M 100.441406 137.640625 L 270.257812 137.640625 C 291.570312 137.640625 308.851562 154.917969 308.851562 176.234375 L 308.851562 186.199219 C 308.851562 207.515625 291.570312 224.796875 270.257812 224.796875 L 100.441406 224.796875 C 79.125 224.796875 61.84375 207.515625 61.84375 186.199219 L 61.84375 176.234375 C 61.84375 154.917969 79.125 137.640625 100.441406 137.640625 Z M 100.441406 137.640625 " clip-rule="nonzero"/></clipPath><clipPath id="b6724b2b24"><path d="M 0.84375 0.640625 L 247.878906 0.640625 L 247.878906 87.796875 L 0.84375 87.796875 Z M 0.84375 0.640625 " clip-rule="nonzero"/></clipPath><clipPath id="bfbd429ce9"><path d="M 39.441406 0.640625 L 209.257812 0.640625 C 230.570312 0.640625 247.851562 17.917969 247.851562 39.234375 L 247.851562 49.199219 C 247.851562 70.515625 230.570312 87.796875 209.257812 87.796875 L 39.441406 87.796875 C 18.125 87.796875 0.84375 70.515625 0.84375 49.199219 L 0.84375 39.234375 C 0.84375 17.917969 18.125 0.640625 39.441406 0.640625 Z M 39.441406 0.640625 " clip-rule="nonzero"/></clipPath><clipPath id="57ef9b9a84"><rect x="0" width="248" y="0" height="88"/></clipPath><clipPath id="e6dfc7b95b"><path d="M 266.128906 141.292969 L 296 141.292969 L 296 175 L 266.128906 175 Z M 266.128906 141.292969 " clip-rule="nonzero"/></clipPath><clipPath id="ab96b87c33"><path d="M 283 161 L 296.128906 161 L 296.128906 184.792969 L 283 184.792969 Z M 283 161 " clip-rule="nonzero"/></clipPath></defs><g clip-path="url(#da4e4212de)"><g clip-path="url(#37ec0acec0)"><g transform="matrix(1, 0, 0, 1, 61, 137)"><g clip-path="url(#57ef9b9a84)"><g clip-path="url(#b6724b2b24)"><g clip-path="url(#bfbd429ce9)"><path fill="#5e17eb" d="M 0.84375 0.640625 L 248.011719 0.640625 L 248.011719 87.796875 L 0.84375 87.796875 Z M 0.84375 0.640625 " fill-opacity="1" fill-rule="nonzero"/></g></g></g></g></g></g><g clip-path="url(#e6dfc7b95b)"><path fill="#000000" d="M 290.1875 148.03125 C 288.339844 147.511719 287.253906 145.574219 287.769531 143.710938 C 288.027344 142.777344 287.488281 141.8125 286.5625 141.550781 C 285.636719 141.292969 284.679688 141.835938 284.421875 142.769531 L 278.886719 162.816406 C 278.054688 161.953125 276.996094 161.292969 275.765625 160.949219 C 272.058594 159.90625 268.203125 162.101562 267.167969 165.84375 C 266.136719 169.582031 268.3125 173.46875 272.019531 174.511719 C 275.730469 175.554688 279.585938 173.359375 280.617188 169.617188 L 286.15625 149.558594 C 286.980469 150.414062 288.035156 151.066406 289.253906 151.410156 C 291.101562 151.929688 292.1875 153.867188 291.671875 155.730469 C 291.414062 156.664062 291.957031 157.628906 292.878906 157.890625 C 293.804688 158.148438 294.765625 157.605469 295.023438 156.671875 C 296.054688 152.945312 293.882812 149.070312 290.1875 148.03125 Z M 290.1875 148.03125 " fill-opacity="1" fill-rule="nonzero"/></g><g clip-path="url(#ab96b87c33)"><path fill="#000000" d="M 290.730469 164.304688 C 289.578125 164.601562 288.402344 163.894531 288.109375 162.730469 C 287.964844 162.148438 287.378906 161.796875 286.800781 161.945312 C 286.222656 162.09375 285.875 162.683594 286.019531 163.265625 L 289.164062 175.773438 C 288.453125 175.570312 287.683594 175.542969 286.917969 175.738281 C 284.601562 176.332031 283.199219 178.710938 283.785156 181.042969 C 284.371094 183.375 286.730469 184.792969 289.042969 184.199219 C 291.359375 183.609375 292.761719 181.230469 292.175781 178.898438 L 289.027344 166.382812 C 289.734375 166.585938 290.5 166.609375 291.261719 166.414062 C 292.414062 166.117188 293.589844 166.824219 293.882812 167.988281 C 294.027344 168.570312 294.617188 168.921875 295.191406 168.773438 C 295.769531 168.625 296.121094 168.035156 295.972656 167.453125 C 295.386719 165.128906 293.035156 163.714844 290.730469 164.304688 Z M 290.730469 164.304688 " fill-opacity="1" fill-rule="nonzero"/></g><g fill="#000000" fill-opacity="1"><g transform="translate(70.12027, 198.743526)"><g><path d="M 38 0 L 36 -25.03125 L 35.734375 -25.03125 L 27.09375 -0.25 L 21.359375 -0.25 L 12.703125 -25.03125 L 12.4375 -25.03125 L 10.453125 0 L 0.8125 0 L 4.609375 -42.25 L 14.84375 -42.25 L 24.21875 -17.875 L 33.59375 -42.25 L 43.828125 -42.25 L 47.625 0 Z M 38 0 "/></g></g></g><g fill="#000000" fill-opacity="1"><g transform="translate(113.740636, 198.743526)"><g><path d="M 11.625 -26.265625 L 11.625 -13.78125 C 11.625 -11.175781 12.015625 -9.328125 12.796875 -8.234375 C 13.585938 -7.148438 14.921875 -6.609375 16.796875 -6.609375 C 18.671875 -6.609375 20 -7.148438 20.78125 -8.234375 C 21.570312 -9.328125 21.96875 -11.175781 21.96875 -13.78125 L 21.96875 -26.265625 L 31.03125 -26.265625 L 31.03125 -11.578125 C 31.03125 -7.203125 29.894531 -4.050781 27.625 -2.125 C 25.351562 -0.195312 21.742188 0.765625 16.796875 0.765625 C 11.847656 0.765625 8.238281 -0.195312 5.96875 -2.125 C 3.695312 -4.050781 2.5625 -7.203125 2.5625 -11.578125 L 2.5625 -26.265625 Z M 11.625 -26.265625 "/></g></g></g><g fill="#000000" fill-opacity="1"><g transform="translate(142.513221, 198.743526)"><g><path d="M 14.484375 -27.03125 C 15.992188 -27.03125 17.476562 -26.859375 18.9375 -26.515625 C 20.40625 -26.179688 21.5 -25.84375 22.21875 -25.5 L 23.296875 -24.984375 L 20.328125 -19.046875 C 18.273438 -20.140625 16.328125 -20.6875 14.484375 -20.6875 C 13.460938 -20.6875 12.738281 -20.570312 12.3125 -20.34375 C 11.882812 -20.125 11.671875 -19.707031 11.671875 -19.09375 C 11.671875 -18.957031 11.6875 -18.820312 11.71875 -18.6875 C 11.757812 -18.550781 11.828125 -18.421875 11.921875 -18.296875 C 12.023438 -18.179688 12.117188 -18.082031 12.203125 -18 C 12.296875 -17.914062 12.441406 -17.820312 12.640625 -17.71875 C 12.847656 -17.613281 13.007812 -17.535156 13.125 -17.484375 C 13.25 -17.429688 13.445312 -17.351562 13.71875 -17.25 C 13.988281 -17.15625 14.191406 -17.082031 14.328125 -17.03125 C 14.472656 -16.976562 14.707031 -16.898438 15.03125 -16.796875 C 15.351562 -16.691406 15.597656 -16.625 15.765625 -16.59375 C 16.828125 -16.28125 17.75 -15.9375 18.53125 -15.5625 C 19.320312 -15.1875 20.148438 -14.675781 21.015625 -14.03125 C 21.890625 -13.382812 22.566406 -12.566406 23.046875 -11.578125 C 23.523438 -10.585938 23.765625 -9.457031 23.765625 -8.1875 C 23.765625 -2.21875 19.613281 0.765625 11.3125 0.765625 C 9.4375 0.765625 7.65625 0.476562 5.96875 -0.09375 C 4.28125 -0.675781 3.054688 -1.257812 2.296875 -1.84375 L 1.171875 -2.765625 L 4.859375 -8.953125 C 5.140625 -8.722656 5.5 -8.441406 5.9375 -8.109375 C 6.382812 -7.785156 7.1875 -7.34375 8.34375 -6.78125 C 9.507812 -6.21875 10.515625 -5.9375 11.359375 -5.9375 C 13.242188 -5.9375 14.1875 -6.566406 14.1875 -7.828125 C 14.1875 -8.410156 13.945312 -8.863281 13.46875 -9.1875 C 12.988281 -9.507812 12.175781 -9.875 11.03125 -10.28125 C 9.882812 -10.695312 8.988281 -11.078125 8.34375 -11.421875 C 6.707031 -12.273438 5.410156 -13.238281 4.453125 -14.3125 C 3.492188 -15.382812 3.015625 -16.8125 3.015625 -18.59375 C 3.015625 -21.25 4.046875 -23.316406 6.109375 -24.796875 C 8.179688 -26.285156 10.972656 -27.03125 14.484375 -27.03125 Z M 14.484375 -27.03125 "/></g></g></g><g fill="#000000" fill-opacity="1"><g transform="translate(162.889127, 198.743526)"><g><path d="M 3.9375 -40.90625 C 5 -41.96875 6.265625 -42.5 7.734375 -42.5 C 9.203125 -42.5 10.460938 -41.96875 11.515625 -40.90625 C 12.578125 -39.851562 13.109375 -38.59375 13.109375 -37.125 C 13.109375 -35.65625 12.578125 -34.390625 11.515625 -33.328125 C 10.460938 -32.273438 9.203125 -31.75 7.734375 -31.75 C 6.265625 -31.75 5 -32.273438 3.9375 -33.328125 C 2.882812 -34.390625 2.359375 -35.65625 2.359375 -37.125 C 2.359375 -38.59375 2.882812 -39.851562 3.9375 -40.90625 Z M 3.078125 -26.265625 L 3.078125 0 L 12.140625 0 L 12.140625 -26.265625 Z M 3.078125 -26.265625 "/></g></g></g><g fill="#000000" fill-opacity="1"><g transform="translate(173.537179, 198.743526)"><g><path d="M 17.046875 -19.609375 C 15.335938 -19.609375 13.867188 -18.976562 12.640625 -17.71875 C 11.410156 -16.457031 10.796875 -14.9375 10.796875 -13.15625 C 10.796875 -11.351562 11.410156 -9.816406 12.640625 -8.546875 C 13.867188 -7.285156 15.335938 -6.65625 17.046875 -6.65625 C 17.867188 -6.65625 18.644531 -6.753906 19.375 -6.953125 C 20.113281 -7.160156 20.65625 -7.367188 21 -7.578125 L 21.453125 -7.890625 L 24.53125 -1.59375 C 24.289062 -1.414062 23.957031 -1.195312 23.53125 -0.9375 C 23.101562 -0.6875 22.128906 -0.34375 20.609375 0.09375 C 19.085938 0.539062 17.457031 0.765625 15.71875 0.765625 C 11.863281 0.765625 8.472656 -0.585938 5.546875 -3.296875 C 2.628906 -6.015625 1.171875 -9.269531 1.171875 -13.0625 C 1.171875 -16.882812 2.628906 -20.164062 5.546875 -22.90625 C 8.472656 -25.65625 11.863281 -27.03125 15.71875 -27.03125 C 17.457031 -27.03125 19.0625 -26.828125 20.53125 -26.421875 C 22 -26.015625 23.039062 -25.601562 23.65625 -25.1875 L 24.53125 -24.578125 L 21.453125 -18.375 C 20.328125 -19.195312 18.859375 -19.609375 17.046875 -19.609375 Z M 17.046875 -19.609375 "/></g></g></g><g fill="#ffffff" fill-opacity="1"><g transform="translate(193.870265, 198.743526)"><g><path d="M 12.703125 -16.953125 L 12.703125 0 L 3.078125 0 L 3.078125 -42.25 L 12.703125 -42.25 L 12.703125 -25.390625 L 26.3125 -25.390625 L 26.3125 -42.25 L 35.9375 -42.25 L 35.9375 0 L 26.3125 0 L 26.3125 -16.953125 Z M 12.703125 -16.953125 "/></g></g></g><g fill="#ffffff" fill-opacity="1"><g transform="translate(228.06997, 198.743526)"><g><path d="M 11.625 -26.265625 L 11.625 -13.78125 C 11.625 -11.175781 12.015625 -9.328125 12.796875 -8.234375 C 13.585938 -7.148438 14.921875 -6.609375 16.796875 -6.609375 C 18.671875 -6.609375 20 -7.148438 20.78125 -8.234375 C 21.570312 -9.328125 21.96875 -11.175781 21.96875 -13.78125 L 21.96875 -26.265625 L 31.03125 -26.265625 L 31.03125 -11.578125 C 31.03125 -7.203125 29.894531 -4.050781 27.625 -2.125 C 25.351562 -0.195312 21.742188 0.765625 16.796875 0.765625 C 11.847656 0.765625 8.238281 -0.195312 5.96875 -2.125 C 3.695312 -4.050781 2.5625 -7.203125 2.5625 -11.578125 L 2.5625 -26.265625 Z M 11.625 -26.265625 "/></g></g></g><g fill="#ffffff" fill-opacity="1"><g transform="translate(256.842555, 198.743526)"><g><path d="M 30.109375 -22.984375 C 32.566406 -20.285156 33.796875 -16.988281 33.796875 -13.09375 C 33.796875 -9.207031 32.566406 -5.925781 30.109375 -3.25 C 27.648438 -0.570312 24.523438 0.765625 20.734375 0.765625 C 17.253906 0.765625 14.390625 -0.476562 12.140625 -2.96875 L 12.03125 -2.96875 L 12.03125 0 L 3.078125 0 L 3.078125 -44.03125 L 12.140625 -44.03125 L 12.140625 -23.765625 C 14.390625 -25.941406 17.253906 -27.03125 20.734375 -27.03125 C 24.523438 -27.03125 27.648438 -25.679688 30.109375 -22.984375 Z M 22.46875 -8.671875 C 23.601562 -9.816406 24.171875 -11.296875 24.171875 -13.109375 C 24.171875 -14.921875 23.582031 -16.40625 22.40625 -17.5625 C 21.226562 -18.71875 19.769531 -19.296875 18.03125 -19.296875 C 16.320312 -19.296875 14.878906 -18.71875 13.703125 -17.5625 C 12.523438 -16.40625 11.9375 -14.921875 11.9375 -13.109375 C 11.9375 -11.335938 12.503906 -9.867188 13.640625 -8.703125 C 14.785156 -7.546875 16.25 -6.96875 18.03125 -6.96875 C 19.863281 -6.96875 21.34375 -7.535156 22.46875 -8.671875 Z M 22.46875 -8.671875 "/></g></g></g><g fill="#5ce1e6" fill-opacity="1"><g transform="translate(286.999162, 198.743526)"><g><path d="M 8.90625 -10.953125 C 10.539062 -10.953125 11.929688 -10.378906 13.078125 -9.234375 C 14.222656 -8.097656 14.796875 -6.707031 14.796875 -5.0625 C 14.796875 -3.457031 14.222656 -2.082031 13.078125 -0.9375 C 11.929688 0.195312 10.539062 0.765625 8.90625 0.765625 C 7.300781 0.765625 5.925781 0.195312 4.78125 -0.9375 C 3.644531 -2.082031 3.078125 -3.457031 3.078125 -5.0625 C 3.078125 -6.707031 3.644531 -8.097656 4.78125 -9.234375 C 5.925781 -10.378906 7.300781 -10.953125 8.90625 -10.953125 Z M 8.90625 -10.953125 "/></g></g></g></svg>