<svg xmlns="http://www.w3.org/2000/svg" xmlns:xlink="http://www.w3.org/1999/xlink" width="1366" zoomAndPan="magnify" viewBox="0 0 1024.5 576" height="768" preserveAspectRatio="xMidYMid meet" version="1.0"><defs><g/><clipPath id="09c40899ef"><path d="M 254.550781 189.070312 L 760.957031 189.070312 L 760.957031 367.640625 L 254.550781 367.640625 Z M 254.550781 189.070312 " clip-rule="nonzero"/></clipPath><clipPath id="6e5ddbe6ff"><path d="M 333.625 189.070312 L 681.554688 189.070312 C 725.226562 189.070312 760.628906 224.472656 760.628906 268.144531 L 760.628906 288.566406 C 760.628906 332.238281 725.226562 367.640625 681.554688 367.640625 L 333.625 367.640625 C 289.953125 367.640625 254.550781 332.238281 254.550781 288.566406 L 254.550781 268.144531 C 254.550781 224.472656 289.953125 189.070312 333.625 189.070312 Z M 333.625 189.070312 " clip-rule="nonzero"/></clipPath><clipPath id="146b58eb25"><path d="M 0.550781 0.0703125 L 506.667969 0.0703125 L 506.667969 178.640625 L 0.550781 178.640625 Z M 0.550781 0.0703125 " clip-rule="nonzero"/></clipPath><clipPath id="5acc7fe2e7"><path d="M 79.625 0.0703125 L 427.554688 0.0703125 C 471.226562 0.0703125 506.628906 35.472656 506.628906 79.144531 L 506.628906 99.566406 C 506.628906 143.238281 471.226562 178.640625 427.554688 178.640625 L 79.625 178.640625 C 35.953125 178.640625 0.550781 143.238281 0.550781 99.566406 L 0.550781 79.144531 C 0.550781 35.472656 35.953125 0.0703125 79.625 0.0703125 Z M 79.625 0.0703125 " clip-rule="nonzero"/></clipPath><clipPath id="c36a30afaa"><rect x="0" width="507" y="0" height="179"/></clipPath><clipPath id="5c2699da7a"><path d="M 769 183.324219 L 829 183.324219 L 829 252 L 769 252 Z M 769 183.324219 " clip-rule="nonzero"/></clipPath><clipPath id="16b391125d"><path d="M 803 225 L 829.867188 225 L 829.867188 272 L 803 272 Z M 803 225 " clip-rule="nonzero"/></clipPath><clipPath id="633246845c"><path d="M 452 71 L 476.996094 71 L 476.996094 96 L 452 96 Z M 452 71 " clip-rule="nonzero"/></clipPath><clipPath id="8e48230d55"><rect x="0" width="477" y="0" height="132"/></clipPath></defs><g clip-path="url(#09c40899ef)"><g clip-path="url(#6e5ddbe6ff)"><g transform="matrix(1, 0, 0, 1, 254, 189)"><g clip-path="url(#c36a30afaa)"><g clip-path="url(#146b58eb25)"><g clip-path="url(#5acc7fe2e7)"><path fill="#5e17eb" d="M 0.550781 0.0703125 L 506.957031 0.0703125 L 506.957031 178.640625 L 0.550781 178.640625 Z M 0.550781 0.0703125 " fill-opacity="1" fill-rule="nonzero"/></g></g></g></g></g></g><g clip-path="url(#5c2699da7a)"><path fill="#000000" d="M 817.550781 197.144531 C 813.71875 196.082031 811.46875 192.109375 812.535156 188.285156 C 813.070312 186.375 811.945312 184.390625 810.027344 183.859375 C 808.109375 183.324219 806.121094 184.445312 805.585938 186.359375 L 794.105469 227.464844 C 792.382812 225.699219 790.1875 224.34375 787.636719 223.636719 C 779.945312 221.503906 771.945312 226.003906 769.804688 233.671875 C 767.664062 241.339844 772.179688 249.316406 779.867188 251.449219 C 787.558594 253.585938 795.554688 249.085938 797.695312 241.417969 L 809.183594 200.28125 C 810.898438 202.035156 813.082031 203.375 815.613281 204.074219 C 819.445312 205.140625 821.695312 209.113281 820.625 212.933594 C 820.09375 214.847656 821.214844 216.832031 823.132812 217.363281 C 825.054688 217.898438 827.042969 216.777344 827.574219 214.863281 C 829.714844 207.222656 825.214844 199.273438 817.550781 197.144531 Z M 817.550781 197.144531 " fill-opacity="1" fill-rule="nonzero"/></g><g clip-path="url(#16b391125d)"><path fill="#000000" d="M 818.675781 230.523438 C 816.285156 231.125 813.847656 229.679688 813.238281 227.292969 C 812.9375 226.101562 811.71875 225.378906 810.523438 225.679688 C 809.324219 225.984375 808.601562 227.195312 808.902344 228.390625 L 815.425781 254.039062 C 813.953125 253.617188 812.355469 253.566406 810.761719 253.96875 C 805.964844 255.179688 803.050781 260.0625 804.269531 264.84375 C 805.484375 269.628906 810.378906 272.535156 815.175781 271.320312 C 819.972656 270.105469 822.886719 265.226562 821.671875 260.441406 L 815.144531 234.777344 C 816.609375 235.191406 818.195312 235.242188 819.773438 234.84375 C 822.167969 234.238281 824.605469 235.6875 825.210938 238.070312 C 825.515625 239.265625 826.730469 239.988281 827.929688 239.683594 C 829.125 239.382812 829.851562 238.167969 829.546875 236.976562 C 828.335938 232.207031 823.457031 229.3125 818.675781 230.523438 Z M 818.675781 230.523438 " fill-opacity="1" fill-rule="nonzero"/></g><g transform="matrix(1, 0, 0, 1, 270, 220)"><g clip-path="url(#8e48230d55)"><g fill="#000000" fill-opacity="1"><g transform="translate(1.505924, 94.262953)"><g><path d="M 77.859375 0 L 73.765625 -51.3125 L 73.234375 -51.3125 L 55.5 -0.53125 L 43.75 -0.53125 L 26.015625 -51.3125 L 25.5 -51.3125 L 21.40625 0 L 1.671875 0 L 9.4375 -86.5625 L 30.421875 -86.5625 L 49.625 -36.625 L 68.828125 -86.5625 L 89.8125 -86.5625 L 97.578125 0 Z M 77.859375 0 "/></g></g></g><g fill="#000000" fill-opacity="1"><g transform="translate(90.877796, 94.262953)"><g><path d="M 23.8125 -53.828125 L 23.8125 -28.21875 C 23.8125 -22.90625 24.613281 -19.128906 26.21875 -16.890625 C 27.832031 -14.648438 30.5625 -13.53125 34.40625 -13.53125 C 38.257812 -13.53125 40.988281 -14.648438 42.59375 -16.890625 C 44.207031 -19.128906 45.015625 -22.90625 45.015625 -28.21875 L 45.015625 -53.828125 L 63.578125 -53.828125 L 63.578125 -23.71875 C 63.578125 -14.757812 61.25 -8.300781 56.59375 -4.34375 C 51.945312 -0.394531 44.550781 1.578125 34.40625 1.578125 C 24.269531 1.578125 16.875 -0.394531 12.21875 -4.34375 C 7.570312 -8.300781 5.25 -14.757812 5.25 -23.71875 L 5.25 -53.828125 Z M 23.8125 -53.828125 "/></g></g></g><g fill="#000000" fill-opacity="1"><g transform="translate(149.828695, 94.262953)"><g><path d="M 29.6875 -55.40625 C 32.769531 -55.40625 35.8125 -55.050781 38.8125 -54.34375 C 41.820312 -53.644531 44.0625 -52.945312 45.53125 -52.25 L 47.734375 -51.203125 L 41.65625 -39.03125 C 37.457031 -41.269531 33.46875 -42.390625 29.6875 -42.390625 C 27.59375 -42.390625 26.109375 -42.160156 25.234375 -41.703125 C 24.359375 -41.253906 23.921875 -40.398438 23.921875 -39.140625 C 23.921875 -38.859375 23.953125 -38.578125 24.015625 -38.296875 C 24.085938 -38.015625 24.226562 -37.75 24.4375 -37.5 C 24.65625 -37.257812 24.847656 -37.050781 25.015625 -36.875 C 25.191406 -36.707031 25.488281 -36.515625 25.90625 -36.296875 C 26.332031 -36.085938 26.664062 -35.929688 26.90625 -35.828125 C 27.15625 -35.722656 27.554688 -35.566406 28.109375 -35.359375 C 28.671875 -35.148438 29.09375 -34.992188 29.375 -34.890625 C 29.65625 -34.785156 30.128906 -34.625 30.796875 -34.40625 C 31.460938 -34.195312 31.96875 -34.0625 32.3125 -34 C 34.476562 -33.363281 36.363281 -32.660156 37.96875 -31.890625 C 39.582031 -31.117188 41.28125 -30.066406 43.0625 -28.734375 C 44.851562 -27.410156 46.238281 -25.734375 47.21875 -23.703125 C 48.195312 -21.679688 48.6875 -19.375 48.6875 -16.78125 C 48.6875 -4.539062 40.1875 1.578125 23.1875 1.578125 C 19.34375 1.578125 15.6875 0.984375 12.21875 -0.203125 C 8.757812 -1.398438 6.257812 -2.59375 4.71875 -3.78125 L 2.40625 -5.671875 L 9.96875 -18.359375 C 10.53125 -17.867188 11.265625 -17.289062 12.171875 -16.625 C 13.078125 -15.96875 14.71875 -15.0625 17.09375 -13.90625 C 19.476562 -12.75 21.546875 -12.171875 23.296875 -12.171875 C 27.140625 -12.171875 29.0625 -13.460938 29.0625 -16.046875 C 29.0625 -17.242188 28.570312 -18.171875 27.59375 -18.828125 C 26.613281 -19.492188 24.953125 -20.242188 22.609375 -21.078125 C 20.265625 -21.921875 18.429688 -22.691406 17.109375 -23.390625 C 13.742188 -25.140625 11.082031 -27.113281 9.125 -29.3125 C 7.164062 -31.519531 6.1875 -34.445312 6.1875 -38.09375 C 6.1875 -43.539062 8.300781 -47.785156 12.53125 -50.828125 C 16.769531 -53.878906 22.488281 -55.40625 29.6875 -55.40625 Z M 29.6875 -55.40625 "/></g></g></g><g fill="#000000" fill-opacity="1"><g transform="translate(191.576004, 94.262953)"><g><path d="M 8.078125 -83.828125 C 10.242188 -85.992188 12.832031 -87.078125 15.84375 -87.078125 C 18.851562 -87.078125 21.441406 -85.992188 23.609375 -83.828125 C 25.773438 -81.660156 26.859375 -79.070312 26.859375 -76.0625 C 26.859375 -73.0625 25.773438 -70.472656 23.609375 -68.296875 C 21.441406 -66.128906 18.851562 -65.046875 15.84375 -65.046875 C 12.832031 -65.046875 10.242188 -66.128906 8.078125 -68.296875 C 5.910156 -70.472656 4.828125 -73.0625 4.828125 -76.0625 C 4.828125 -79.070312 5.910156 -81.660156 8.078125 -83.828125 Z M 6.296875 -53.828125 L 6.296875 0 L 24.859375 0 L 24.859375 -53.828125 Z M 6.296875 -53.828125 "/></g></g></g><g fill="#000000" fill-opacity="1"><g transform="translate(213.392334, 94.262953)"><g><path d="M 34.9375 -40.1875 C 31.4375 -40.1875 28.425781 -38.890625 25.90625 -36.296875 C 23.394531 -33.710938 22.140625 -30.601562 22.140625 -26.96875 C 22.140625 -23.257812 23.394531 -20.109375 25.90625 -17.515625 C 28.425781 -14.929688 31.4375 -13.640625 34.9375 -13.640625 C 36.613281 -13.640625 38.203125 -13.847656 39.703125 -14.265625 C 41.210938 -14.691406 42.316406 -15.113281 43.015625 -15.53125 L 43.96875 -16.15625 L 50.25 -3.25 C 49.757812 -2.90625 49.078125 -2.46875 48.203125 -1.9375 C 47.335938 -1.414062 45.347656 -0.703125 42.234375 0.203125 C 39.117188 1.117188 35.78125 1.578125 32.21875 1.578125 C 24.3125 1.578125 17.363281 -1.203125 11.375 -6.765625 C 5.394531 -12.328125 2.40625 -18.988281 2.40625 -26.75 C 2.40625 -34.582031 5.394531 -41.316406 11.375 -46.953125 C 17.363281 -52.585938 24.3125 -55.40625 32.21875 -55.40625 C 35.78125 -55.40625 39.0625 -54.984375 42.0625 -54.140625 C 45.070312 -53.296875 47.207031 -52.457031 48.46875 -51.625 L 50.25 -50.359375 L 43.96875 -37.671875 C 41.65625 -39.347656 38.644531 -40.1875 34.9375 -40.1875 Z M 34.9375 -40.1875 "/></g></g></g><g fill="#ffffff" fill-opacity="1"><g transform="translate(255.051911, 94.262953)"><g><path d="M 26.015625 -34.734375 L 26.015625 0 L 6.296875 0 L 6.296875 -86.5625 L 26.015625 -86.5625 L 26.015625 -52.046875 L 53.9375 -52.046875 L 53.9375 -86.5625 L 73.65625 -86.5625 L 73.65625 0 L 53.9375 0 L 53.9375 -34.734375 Z M 26.015625 -34.734375 "/></g></g></g><g fill="#ffffff" fill-opacity="1"><g transform="translate(325.122199, 94.262953)"><g><path d="M 23.8125 -53.828125 L 23.8125 -28.21875 C 23.8125 -22.90625 24.613281 -19.128906 26.21875 -16.890625 C 27.832031 -14.648438 30.5625 -13.53125 34.40625 -13.53125 C 38.257812 -13.53125 40.988281 -14.648438 42.59375 -16.890625 C 44.207031 -19.128906 45.015625 -22.90625 45.015625 -28.21875 L 45.015625 -53.828125 L 63.578125 -53.828125 L 63.578125 -23.71875 C 63.578125 -14.757812 61.25 -8.300781 56.59375 -4.34375 C 51.945312 -0.394531 44.550781 1.578125 34.40625 1.578125 C 24.269531 1.578125 16.875 -0.394531 12.21875 -4.34375 C 7.570312 -8.300781 5.25 -14.757812 5.25 -23.71875 L 5.25 -53.828125 Z M 23.8125 -53.828125 "/></g></g></g><g fill="#ffffff" fill-opacity="1"><g transform="translate(384.073098, 94.262953)"><g><path d="M 61.6875 -47.109375 C 66.726562 -41.585938 69.25 -34.835938 69.25 -26.859375 C 69.25 -18.890625 66.726562 -12.15625 61.6875 -6.65625 C 56.65625 -1.164062 50.257812 1.578125 42.5 1.578125 C 35.363281 1.578125 29.484375 -0.972656 24.859375 -6.078125 L 24.65625 -6.078125 L 24.65625 0 L 6.296875 0 L 6.296875 -90.234375 L 24.859375 -90.234375 L 24.859375 -48.6875 C 29.484375 -53.164062 35.363281 -55.40625 42.5 -55.40625 C 50.257812 -55.40625 56.65625 -52.640625 61.6875 -47.109375 Z M 46.046875 -17.78125 C 48.359375 -20.125 49.515625 -23.148438 49.515625 -26.859375 C 49.515625 -30.566406 48.304688 -33.609375 45.890625 -35.984375 C 43.484375 -38.367188 40.5 -39.5625 36.9375 -39.5625 C 33.4375 -39.5625 30.476562 -38.367188 28.0625 -35.984375 C 25.65625 -33.609375 24.453125 -30.566406 24.453125 -26.859375 C 24.453125 -23.222656 25.617188 -20.210938 27.953125 -17.828125 C 30.296875 -15.453125 33.289062 -14.265625 36.9375 -14.265625 C 40.707031 -14.265625 43.742188 -15.4375 46.046875 -17.78125 Z M 46.046875 -17.78125 "/></g></g></g><g clip-path="url(#633246845c)"><g fill="#5ce1e6" fill-opacity="1"><g transform="translate(445.859659, 94.262953)"><g><path d="M 18.25 -22.453125 C 21.613281 -22.453125 24.46875 -21.28125 26.8125 -18.9375 C 29.15625 -16.59375 30.328125 -13.742188 30.328125 -10.390625 C 30.328125 -7.097656 29.15625 -4.28125 26.8125 -1.9375 C 24.46875 0.40625 21.613281 1.578125 18.25 1.578125 C 14.96875 1.578125 12.15625 0.40625 9.8125 -1.9375 C 7.46875 -4.28125 6.296875 -7.097656 6.296875 -10.390625 C 6.296875 -13.742188 7.46875 -16.59375 9.8125 -18.9375 C 12.15625 -21.28125 14.96875 -22.453125 18.25 -22.453125 Z M 18.25 -22.453125 "/></g></g></g></g></g></g></svg>